<svg xmlns="http://www.w3.org/2000/svg" xmlns:xlink="http://www.w3.org/1999/xlink" width="1920" zoomAndPan="magnify" viewBox="0 0 1440 1439.999935" height="1920" preserveAspectRatio="xMidYMid meet" version="1.0"><defs><clipPath id="755bd90496"><path d="M 311 340 L 1391 340 L 1391 1364.523438 L 311 1364.523438 Z M 311 340 " clip-rule="nonzero"/></clipPath><clipPath id="ece00cf314"><path d="M 452 75.273438 L 523 75.273438 L 523 234 L 452 234 Z M 452 75.273438 " clip-rule="nonzero"/></clipPath></defs><g clip-path="url(#755bd90496)"><path fill="#000000" d="M 1346.496094 834.324219 C 1282.996094 725.007812 1219.363281 615.773438 1156.472656 506.113281 C 1134.535156 467.863281 1101.679688 447.730469 1058.671875 448.886719 C 1016.488281 450.019531 984.824219 471.328125 968 511.257812 C 964.105469 520.511719 960.472656 522.332031 950.625 516.960938 C 894.578125 486.394531 828.816406 509.160156 803.984375 567.5625 C 799.765625 577.492188 796.304688 576.007812 787.710938 572.960938 C 770.703125 566.925781 752.769531 559.9375 735.171875 559.808594 C 695.609375 559.515625 664.835938 577.390625 646.074219 613.390625 C 644.550781 616.308594 641.292969 618.328125 638.84375 620.765625 C 636.554688 618.222656 633.824219 615.941406 632.058594 613.074219 C 628.726562 607.652344 626.113281 601.796875 622.921875 596.277344 C 583.878906 528.726562 545.140625 460.992188 505.582031 393.738281 C 476.921875 345.015625 426.421875 328.789062 374.109375 350.207031 C 323.371094 370.984375 296.578125 435.234375 321.070312 484.242188 C 341.226562 524.574219 365.199219 563.035156 387.933594 602.066406 C 455.457031 718.015625 523.230469 833.824219 590.796875 949.753906 C 594.554688 956.195312 597.308594 963.222656 602.222656 973.523438 C 593.941406 972.214844 590.265625 972.164062 586.960938 971.03125 C 554.105469 959.769531 521.035156 949.054688 488.585938 936.738281 C 454.734375 923.890625 420.839844 919.75 386.523438 932.933594 C 341.542969 950.214844 310.980469 997.207031 311.800781 1044.324219 C 312.738281 1098.195312 338.382812 1138.53125 387.011719 1157.421875 C 461.757812 1186.457031 536.644531 1215.132812 611.578125 1243.691406 C 700.621094 1277.632812 789.613281 1311.710938 878.925781 1344.933594 C 945.386719 1369.660156 1013.523438 1371.507812 1079.890625 1347.566406 C 1144.234375 1324.351562 1204.945312 1292.578125 1259.027344 1250.007812 C 1318.488281 1203.207031 1362.582031 1145.128906 1380.550781 1070.867188 C 1400.597656 988.023438 1389.695312 908.6875 1346.496094 834.324219 Z M 1350.277344 1031.910156 C 1342.75 1086.488281 1318.59375 1133.882812 1282.464844 1176.214844 C 1235.53125 1231.214844 1173.417969 1263.007812 1110.511719 1294.289062 C 1055.675781 1321.5625 998.464844 1336.230469 937.417969 1321.660156 C 907.675781 1314.558594 878.535156 1304.304688 849.855469 1293.546875 C 711.644531 1241.703125 573.660156 1189.253906 435.664062 1136.847656 C 421.554688 1131.492188 407.585938 1125.59375 394.066406 1118.910156 C 359.765625 1101.945312 343.089844 1065.152344 351.511719 1026.515625 C 359.03125 992.023438 391.234375 964.515625 426.578125 962.011719 C 453.957031 960.070312 479.234375 968.347656 504.285156 977.464844 C 558.996094 997.371094 613.585938 1017.597656 668.238281 1037.664062 C 673.628906 1039.644531 679.09375 1041.425781 684.527344 1043.300781 C 685.417969 1042.195312 686.308594 1041.085938 687.199219 1039.976562 C 678.984375 1025.390625 670.953125 1010.703125 662.519531 996.242188 C 583.574219 860.878906 504.574219 725.546875 425.5625 590.226562 C 403.890625 553.117188 381.691406 516.308594 360.53125 478.914062 C 347.675781 456.195312 347.203125 432.710938 361.273438 409.910156 C 375.160156 387.414062 395.945312 378.078125 421.875 379.9375 C 443.679688 381.5 459.359375 392.773438 470.34375 411.480469 C 510.113281 479.191406 550.28125 546.667969 589.988281 614.417969 C 629.25 681.402344 668.132812 748.613281 707.207031 815.714844 C 709.277344 819.265625 711.503906 822.734375 713.808594 826.144531 C 720.457031 835.960938 728.878906 841.054688 740.671875 834.980469 C 750.460938 829.9375 752.574219 820.121094 745.828125 807.609375 C 736.507812 790.3125 726.46875 773.402344 716.738281 756.328125 C 704.292969 734.496094 691.167969 713.019531 679.570312 690.753906 C 665.253906 663.257812 671.261719 633.460938 693.703125 613.445312 C 714.925781 594.515625 748.046875 590.453125 771.445312 606.886719 C 782.566406 614.699219 791.507812 626.867188 798.699219 638.707031 C 822.402344 677.738281 844.851562 717.523438 867.792969 757.015625 C 875.359375 770.046875 886.289062 774.078125 897.382812 767.96875 C 907.046875 762.640625 909.300781 752.082031 902.054688 739.417969 C 882.777344 705.710938 862.882812 672.355469 843.433594 638.746094 C 825.492188 607.734375 834.875 570.113281 865.03125 551.140625 C 895.046875 532.25 933.816406 539.960938 953.292969 570.464844 C 975.660156 605.496094 996.382812 641.570312 1017.828125 677.183594 C 1019.480469 679.925781 1021.089844 682.703125 1022.871094 685.355469 C 1030.257812 696.347656 1040.089844 699.371094 1049.65625 693.671875 C 1059.273438 687.941406 1061.660156 678.058594 1054.933594 666.1875 C 1040.960938 641.527344 1025.710938 617.566406 1012.367188 592.589844 C 1006.050781 580.765625 1000.195312 567.535156 998.890625 554.46875 C 995.875 524.328125 1015.6875 497.402344 1044.144531 488.621094 C 1071.269531 480.246094 1101.757812 490.886719 1116.957031 516.464844 C 1157.566406 584.808594 1197.261719 653.691406 1237.320312 722.363281 C 1262.878906 766.171875 1288.648438 809.859375 1313.933594 853.820312 C 1345.738281 909.132812 1358.972656 968.824219 1350.277344 1031.910156 Z M 1350.277344 1031.910156 " fill-opacity="1" fill-rule="nonzero"/></g><path fill="#000000" d="M 313.226562 231.144531 C 292.574219 194.746094 272.070312 158.261719 250.925781 122.148438 C 245.269531 112.492188 236.082031 108.628906 225.054688 114.378906 C 215.277344 119.476562 211.609375 130.410156 217.539062 141.210938 C 229.140625 162.335938 241.71875 182.9375 253.949219 203.71875 C 262.9375 218.984375 271.78125 234.339844 281.15625 249.367188 C 285.953125 257.0625 293.34375 261.445312 302.121094 256.492188 C 308.226562 253.046875 313.0625 247.363281 318.019531 243.0625 C 315.582031 236.921875 314.757812 233.832031 313.226562 231.144531 Z M 313.226562 231.144531 " fill-opacity="1" fill-rule="nonzero"/><g clip-path="url(#ece00cf314)"><path fill="#000000" d="M 464.492188 231.792969 C 477.050781 236.007812 486.347656 229.957031 490.351562 215.011719 C 498.019531 186.390625 505.671875 157.761719 513.101562 129.078125 C 516.074219 117.597656 518.4375 105.957031 522.003906 90.332031 C 517.894531 86.578125 513.171875 79.820312 506.714844 76.976562 C 498.035156 73.15625 488.953125 75.714844 485.277344 85.757812 C 481.367188 96.433594 478.375 107.476562 475.539062 118.503906 C 467.917969 148.132812 460.558594 177.832031 453.167969 207.519531 C 450.417969 218.5625 452.328125 227.707031 464.492188 231.792969 Z M 464.492188 231.792969 " fill-opacity="1" fill-rule="nonzero"/></g><path fill="#000000" d="M 186.851562 394.304688 C 199.359375 397.222656 209.585938 389.027344 209.609375 373.320312 C 207.359375 370.554688 203.21875 365.046875 198.574219 360.003906 C 197.191406 358.5 194.449219 358.085938 192.242188 357.503906 C 153.667969 347.289062 115.121094 336.964844 76.46875 327.042969 C 61.445312 323.1875 53.722656 327.355469 50.683594 339.636719 C 47.636719 351.9375 52.660156 358.859375 67.125 362.796875 C 81.714844 366.773438 96.183594 371.199219 110.808594 375.03125 C 136.101562 381.671875 161.390625 388.359375 186.851562 394.304688 Z M 186.851562 394.304688 " fill-opacity="1" fill-rule="nonzero"/><path fill="#000000" d="M 204.777344 535.328125 C 168.835938 555.113281 133.113281 575.289062 97.46875 595.597656 C 86.410156 601.898438 83.527344 611.882812 88.699219 622.25 C 93.621094 632.105469 102.515625 635.136719 114.273438 628.734375 C 150.722656 608.875 186.917969 588.546875 222.832031 567.75 C 227.671875 564.949219 230.339844 558.429688 232.183594 556.023438 C 232.808594 536.679688 218.78125 527.621094 204.777344 535.328125 Z M 204.777344 535.328125 " fill-opacity="1" fill-rule="nonzero"/><path fill="#000000" d="M 608.167969 331.300781 C 644.617188 311.445312 680.8125 291.117188 716.726562 270.320312 C 721.566406 267.519531 724.234375 261 726.078125 258.59375 C 726.707031 239.246094 712.679688 230.1875 698.671875 237.894531 C 662.734375 257.679688 627.011719 277.855469 591.367188 298.164062 C 580.308594 304.464844 577.425781 314.449219 582.597656 324.816406 C 587.515625 334.675781 596.414062 337.707031 608.167969 331.300781 Z M 608.167969 331.300781 " fill-opacity="1" fill-rule="nonzero"/></svg>